# xmcd
#
# Track frame offsets:
# 150
# 17729
# 41923
# 54752
# 66573
# 79802
# 93072
# 107327
# 124209
# 140551
# 157055
# 172808
#
# Disc length: 2525 seconds
#
# Revision: 0
# Processed by: cddbd v1.5.1PL2 Copyright (c) Steve Scherf et al.
# Submitted via: Audion 3.0.2 (http://www.panic.com/audion/)
#
DISCID=9909db0c
DTITLE=Ian MacIver - aig an oir
DYEAR=1900
DGENRE=
TTITLE0=Love
TTITLE1=At the Edge
TTITLE2=New Year Time
TTITLE3=Jame's Shop
TTITLE4=Leave it with Me
TTITLE5=Cairn for the Heroes
TTITLE6=Monday Morning
TTITLE7=When will You Return
TTITLE8=I Wish
TTITLE9=Today's Children
TTITLE10=Missing You
TTITLE11=Changes
EXTD=
EXTT0=
EXTT1=
EXTT2=
EXTT3=
EXTT4=
EXTT5=
EXTT6=
EXTT7=
EXTT8=
EXTT9=
EXTT10=
EXTT11=
PLAYORDER=
